# MagicaVoxel @ Ephtracy

# group
o 

# material
mtllib newcobbleroad.mtl
usemtl palette

# normals
vn -1 0 0
vn 1 0 0
vn 0 0 1
vn 0 0 -1
vn 0 -1 0
vn 0 1 0

# texcoords
vt 0.369141 0.5
vt 0.771484 0.5
vt 0.904297 0.5
vt 0.978516 0.5

# verts
v -0.1 -12 1
v -0.1 -12 0.7
v -0.1 -12 0.5
v -0.1 -12 -0.7
v -0.1 -12 -0.8
v -0.1 -12 -1
v -0.1 -11.9 0.7
v -0.1 -11.9 0.5
v -0.1 -11.9 -0.7
v -0.1 -11.9 -0.8
v -0.1 3.2 1
v -0.1 3.2 0.9
v -0.1 3.4 1
v -0.1 3.4 0.9
v -0.1 12 1
v -0.1 12 -1
v 0.1 -12 1
v 0.1 -12 0.6
v 0.1 -12 -0.7
v 0.1 -12 -1
v 0.1 -11.9 0.7
v 0.1 -11.9 0.6
v 0.1 -11.7 0.8
v 0.1 -11.7 0.7
v 0.1 -11.4 -0.7
v 0.1 -11.4 -0.8
v 0.1 -11.3 -0.8
v 0.1 -11.3 -1
v 0.1 -10.9 0.8
v 0.1 -10.9 0.7
v 0.1 -10.9 -0.9
v 0.1 -10.9 -1
v 0.1 -10.8 -0.8
v 0.1 -10.8 -0.9
v 0.1 -10.6 0.7
v 0.1 -10.6 0.6
v 0.1 -10.4 0.6
v 0.1 -10.4 0.5
v 0.1 -10.4 -0.7
v 0.1 -10.4 -0.8
v 0.1 -10.2 0.6
v 0.1 -10.2 0.5
v 0.1 -9.9 -0.7
v 0.1 -9.9 -0.8
v 0.1 -9.6 -0.8
v 0.1 -9.6 -0.9
v 0.1 -9.4 -0.9
v 0.1 -9.4 -1
v 0.1 -9.2 0.7
v 0.1 -9.2 0.6
v 0.1 -8.6 -0.9
v 0.1 -8.6 -1
v 0.1 -8.4 0.8
v 0.1 -8.4 0.7
v 0.1 -8.4 -0.8
v 0.1 -8.4 -0.9
v 0.1 -8.1 0.9
v 0.1 -8.1 0.8
v 0.1 -8 -0.7
v 0.1 -8 -0.8
v 0.1 -7.6 -0.6
v 0.1 -7.6 -0.7
v 0.1 -7.2 -0.6
v 0.1 -7.2 -0.7
v 0.1 -6.9 0.9
v 0.1 -6.9 0.8
v 0.1 -6.4 -0.7
v 0.1 -6.4 -0.8
v 0.1 -6.2 0.8
v 0.1 -6.2 0.7
v 0.1 -6.2 -0.8
v 0.1 -6.2 -0.9
v 0.1 -5.6 -0.8
v 0.1 -5.6 -0.9
v 0.1 -5.5 -0.7
v 0.1 -5.5 -0.8
v 0.1 -4.9 -0.6
v 0.1 -4.9 -0.7
v 0.1 -4.8 0.8
v 0.1 -4.8 0.7
v 0.1 -4.5 0.8
v 0.1 -4.5 0.7
v 0.1 -3.5 0.7
v 0.1 -3.5 0.6
v 0.1 -3.4 -0.5
v 0.1 -3.4 -0.6
v 0.1 -3.1 0.6
v 0.1 -3.1 0.5
v 0.1 -3 -0.4
v 0.1 -3 -0.5
v 0.1 -2.7 0.5
v 0.1 -2.7 0.4
v 0.1 -2.7 -0.3
v 0.1 -2.7 -0.4
v 0.1 -2.4 -0.2
v 0.1 -2.4 -0.3
v 0.1 -1.8 -0.2
v 0.1 -1.8 -0.3
v 0.1 -1.7 0.5
v 0.1 -1.7 0.4
v 0.1 -1.4 -0.3
v 0.1 -1.4 -0.4
v 0.1 -1.3 -0.4
v 0.1 -1.3 -0.6
v 0.1 -1.2 -0.6
v 0.1 -1.2 -0.7
v 0.1 -1.1 -0.7
v 0.1 -1.1 -0.8
v 0.1 -0.8 -0.8
v 0.1 -0.8 -0.9
v 0.1 -0.6 -0.8
v 0.1 -0.6 -0.9
v 0.1 -0.5 0.6
v 0.1 -0.5 0.5
v 0.1 -0.400001 -0.8
v 0.1 -0.400001 -0.9
v 0.1 0.0999994 -0.8
v 0.1 0.0999994 -0.9
v 0.1 0.7 0.7
v 0.1 0.7 0.6
v 0.1 1 0.8
v 0.1 1 0.7
v 0.1 1.7 -0.7
v 0.1 1.7 -0.8
v 0.1 1.9 0.9
v 0.1 1.9 0.8
v 0.1 2 -0.6
v 0.1 2 -0.7
v 0.1 2.2 -0.5
v 0.1 2.2 -0.6
v 0.1 2.8 -0.5
v 0.1 2.8 -0.6
v 0.1 3.1 -0.6
v 0.1 3.1 -0.7
v 0.1 3.2 1
v 0.1 3.2 0.9
v 0.1 3.9 1
v 0.1 3.9 0.9
v 0.1 4.5 0.9
v 0.1 4.5 0.8
v 0.1 4.8 -0.6
v 0.1 4.8 -0.7
v 0.1 4.9 0.8
v 0.1 4.9 0.7
v 0.1 5.6 -0.5
v 0.1 5.6 -0.6
v 0.1 6 -0.4
v 0.1 6 -0.5
v 0.1 6.2 0.8
v 0.1 6.2 0.7
v 0.1 6.2 -0.4
v 0.1 6.2 -0.5
v 0.1 7.1 -0.5
v 0.1 7.1 -0.6
v 0.1 7.2 0.9
v 0.1 7.2 0.8
v 0.1 8.6 1
v 0.1 8.6 0.9
v 0.1 9.3 1
v 0.1 9.3 0.9
v 0.1 9.3 -0.6
v 0.1 9.3 -0.7
v 0.1 9.7 -0.7
v 0.1 9.7 -0.8
v 0.1 9.8 -0.8
v 0.1 9.8 -0.9
v 0.1 10 0.9
v 0.1 10 0.8
v 0.1 10.2 -0.9
v 0.1 10.2 -1
v 0.1 11.2 0.8
v 0.1 11.2 0.7
v 0.1 11.2 -0.9
v 0.1 11.2 -1
v 0.1 11.4 -0.8
v 0.1 11.4 -0.9
v 0.1 11.7 -0.7
v 0.1 11.7 -0.8
v 0.1 11.9 -0.6
v 0.1 11.9 -0.7
v 0.1 12 1
v 0.1 12 0.7
v 0.1 12 -0.6
v 0.1 12 -1
v -0.1 -12 1
v -0.1 3.2 1
v -0.1 3.4 1
v -0.1 12 1
v 0 -12 1
v 0 3.2 1
v 0 3.4 1
v 0 3.9 1
v 0 8.6 1
v 0 9.3 1
v 0 12 1
v 0.1 -12 1
v 0.1 3.2 1
v 0.1 3.9 1
v 0.1 8.6 1
v 0.1 9.3 1
v 0.1 12 1
v -0.1 -12 -1
v -0.1 12 -1
v 0 -12 -1
v 0 -11.3 -1
v 0 -10.9 -1
v 0 -9.4 -1
v 0 -8.6 -1
v 0 10.2 -1
v 0 11.2 -1
v 0 12 -1
v 0.1 -12 -1
v 0.1 -11.3 -1
v 0.1 -10.9 -1
v 0.1 -9.4 -1
v 0.1 -8.6 -1
v 0.1 10.2 -1
v 0.1 11.2 -1
v 0.1 12 -1
v -0.1 -12 1
v 0 -12 1
v 0.1 -12 1
v -0.1 -12 0.7
v 0 -12 0.7
v 0 -12 0.6
v 0.1 -12 0.6
v -0.1 -12 0.5
v 0 -12 0.5
v -0.1 -12 -0.7
v 0 -12 -0.7
v 0.1 -12 -0.7
v -0.1 -12 -0.8
v 0 -12 -0.8
v -0.1 -12 -1
v 0 -12 -1
v 0.1 -12 -1
v -0.1 12 1
v 0 12 1
v 0.1 12 1
v 0 12 0.7
v 0.1 12 0.7
v 0 12 -0.6
v 0.1 12 -0.6
v -0.1 12 -1
v 0 12 -1
v 0.1 12 -1

# faces
f 7/1/1 2/1/1 1/1/1
f 7/2/1 3/2/1 2/2/1
f 8/1/1 4/1/1 3/1/1
f 8/2/1 3/2/1 7/2/1
f 9/2/1 5/2/1 4/2/1
f 9/1/1 4/1/1 8/1/1
f 10/1/1 6/1/1 5/1/1
f 10/2/1 5/2/1 9/2/1
f 11/1/1 9/1/1 8/1/1
f 11/1/1 8/1/1 7/1/1
f 11/1/1 10/1/1 9/1/1
f 11/1/1 7/1/1 1/1/1
f 12/1/1 10/1/1 11/1/1
f 13/2/1 12/2/1 11/2/1
f 14/1/1 10/1/1 12/1/1
f 14/2/1 12/2/1 13/2/1
f 15/1/1 14/1/1 13/1/1
f 16/1/1 6/1/1 10/1/1
f 16/1/1 14/1/1 15/1/1
f 16/1/1 10/1/1 14/1/1
f 17/3/2 18/3/2 21/3/2
f 18/4/2 19/4/2 22/4/2
f 21/3/2 18/3/2 22/3/2
f 17/3/2 21/3/2 23/3/2
f 21/4/2 22/4/2 24/4/2
f 23/3/2 21/3/2 24/3/2
f 19/3/2 20/3/2 25/3/2
f 24/4/2 22/4/2 25/4/2
f 23/4/2 24/4/2 25/4/2
f 22/4/2 19/4/2 25/4/2
f 25/3/2 20/3/2 26/3/2
f 25/4/2 26/4/2 27/4/2
f 26/3/2 20/3/2 27/3/2
f 27/3/2 20/3/2 28/3/2
f 17/3/2 23/3/2 29/3/2
f 23/4/2 25/4/2 29/4/2
f 27/4/2 28/4/2 29/4/2
f 25/4/2 27/4/2 29/4/2
f 29/4/2 28/4/2 30/4/2
f 30/4/2 28/4/2 31/4/2
f 31/4/2 28/4/2 32/4/2
f 30/4/2 31/4/2 33/4/2
f 31/3/2 32/3/2 34/3/2
f 33/4/2 31/4/2 34/4/2
f 29/3/2 30/3/2 35/3/2
f 30/4/2 33/4/2 35/4/2
f 35/4/2 33/4/2 36/4/2
f 35/3/2 36/3/2 37/3/2
f 36/4/2 33/4/2 37/4/2
f 37/4/2 33/4/2 38/4/2
f 38/4/2 33/4/2 39/4/2
f 33/3/2 34/3/2 40/3/2
f 39/4/2 33/4/2 40/4/2
f 35/3/2 37/3/2 41/3/2
f 37/3/2 38/3/2 41/3/2
f 38/4/2 39/4/2 42/4/2
f 41/3/2 38/3/2 42/3/2
f 39/3/2 40/3/2 43/3/2
f 42/4/2 39/4/2 43/4/2
f 41/4/2 42/4/2 43/4/2
f 40/3/2 34/3/2 44/3/2
f 43/3/2 40/3/2 44/3/2
f 43/4/2 44/4/2 45/4/2
f 44/3/2 34/3/2 45/3/2
f 34/3/2 32/3/2 46/3/2
f 45/3/2 34/3/2 46/3/2
f 45/4/2 46/4/2 47/4/2
f 46/3/2 32/3/2 47/3/2
f 47/3/2 32/3/2 48/3/2
f 35/3/2 41/3/2 49/3/2
f 29/3/2 35/3/2 49/3/2
f 43/4/2 45/4/2 50/4/2
f 49/3/2 41/3/2 50/3/2
f 47/4/2 48/4/2 50/4/2
f 45/4/2 47/4/2 50/4/2
f 41/4/2 43/4/2 50/4/2
f 49/4/2 50/4/2 51/4/2
f 50/4/2 48/4/2 51/4/2
f 51/4/2 48/4/2 52/4/2
f 17/3/2 29/3/2 53/3/2
f 29/3/2 49/3/2 53/3/2
f 49/4/2 51/4/2 54/4/2
f 53/3/2 49/3/2 54/3/2
f 54/4/2 51/4/2 55/4/2
f 51/3/2 52/3/2 56/3/2
f 55/4/2 51/4/2 56/4/2
f 17/3/2 53/3/2 57/3/2
f 54/4/2 55/4/2 58/4/2
f 57/3/2 53/3/2 58/3/2
f 53/4/2 54/4/2 58/4/2
f 57/4/2 58/4/2 59/4/2
f 58/4/2 55/4/2 59/4/2
f 55/3/2 56/3/2 60/3/2
f 59/4/2 55/4/2 60/4/2
f 57/4/2 59/4/2 61/4/2
f 59/3/2 60/3/2 62/3/2
f 61/4/2 59/4/2 62/4/2
f 57/4/2 61/4/2 63/4/2
f 61/3/2 62/3/2 63/3/2
f 62/3/2 60/3/2 64/3/2
f 63/3/2 62/3/2 64/3/2
f 17/3/2 57/3/2 65/3/2
f 57/4/2 63/4/2 65/4/2
f 63/4/2 64/4/2 65/4/2
f 65/4/2 64/4/2 66/4/2
f 64/3/2 60/3/2 67/3/2
f 66/4/2 64/4/2 67/4/2
f 60/3/2 56/3/2 68/3/2
f 67/3/2 60/3/2 68/3/2
f 65/3/2 66/3/2 69/3/2
f 66/4/2 67/4/2 69/4/2
f 67/4/2 68/4/2 69/4/2
f 69/4/2 68/4/2 70/4/2
f 68/3/2 56/3/2 71/3/2
f 70/4/2 68/4/2 71/4/2
f 56/3/2 52/3/2 72/3/2
f 71/3/2 56/3/2 72/3/2
f 70/4/2 71/4/2 73/4/2
f 71/4/2 72/4/2 73/4/2
f 72/3/2 52/3/2 74/3/2
f 73/4/2 72/4/2 74/4/2
f 70/4/2 73/4/2 75/4/2
f 73/3/2 74/3/2 76/3/2
f 75/4/2 73/4/2 76/4/2
f 70/4/2 75/4/2 77/4/2
f 75/3/2 76/3/2 78/3/2
f 77/4/2 75/4/2 78/4/2
f 69/3/2 70/3/2 79/3/2
f 65/3/2 69/3/2 79/3/2
f 70/4/2 77/4/2 80/4/2
f 79/3/2 70/3/2 80/3/2
f 65/3/2 79/3/2 81/3/2
f 79/4/2 80/4/2 81/4/2
f 80/4/2 77/4/2 82/4/2
f 81/4/2 80/4/2 82/4/2
f 81/3/2 82/3/2 83/3/2
f 82/4/2 77/4/2 83/4/2
f 83/4/2 77/4/2 84/4/2
f 84/4/2 77/4/2 85/4/2
f 77/3/2 78/3/2 86/3/2
f 85/4/2 77/4/2 86/4/2
f 84/4/2 85/4/2 87/4/2
f 83/3/2 84/3/2 87/3/2
f 87/4/2 85/4/2 88/4/2
f 88/4/2 85/4/2 89/4/2
f 85/3/2 86/3/2 90/3/2
f 89/4/2 85/4/2 90/4/2
f 88/4/2 89/4/2 91/4/2
f 87/3/2 88/3/2 91/3/2
f 91/4/2 89/4/2 92/4/2
f 92/4/2 89/4/2 93/4/2
f 89/3/2 90/3/2 94/3/2
f 93/4/2 89/4/2 94/4/2
f 92/4/2 93/4/2 95/4/2
f 93/3/2 94/3/2 96/3/2
f 95/4/2 93/4/2 96/4/2
f 92/4/2 95/4/2 97/4/2
f 95/3/2 96/3/2 97/3/2
f 96/3/2 94/3/2 98/3/2
f 97/3/2 96/3/2 98/3/2
f 87/3/2 91/3/2 99/3/2
f 91/3/2 92/3/2 99/3/2
f 97/4/2 98/4/2 100/4/2
f 99/3/2 92/3/2 100/3/2
f 92/4/2 97/4/2 100/4/2
f 98/3/2 94/3/2 101/3/2
f 100/4/2 98/4/2 101/4/2
f 99/4/2 100/4/2 101/4/2
f 94/3/2 90/3/2 102/3/2
f 101/3/2 94/3/2 102/3/2
f 101/4/2 102/4/2 103/4/2
f 102/3/2 90/3/2 103/3/2
f 86/3/2 78/3/2 104/3/2
f 103/3/2 90/3/2 104/3/2
f 90/3/2 86/3/2 104/3/2
f 103/4/2 104/4/2 105/4/2
f 104/3/2 78/3/2 105/3/2
f 78/3/2 76/3/2 106/3/2
f 105/3/2 78/3/2 106/3/2
f 105/4/2 106/4/2 107/4/2
f 106/3/2 76/3/2 107/3/2
f 76/3/2 74/3/2 108/3/2
f 107/3/2 76/3/2 108/3/2
f 107/4/2 108/4/2 109/4/2
f 108/3/2 74/3/2 109/3/2
f 74/3/2 52/3/2 110/3/2
f 109/3/2 74/3/2 110/3/2
f 107/4/2 109/4/2 111/4/2
f 109/4/2 110/4/2 111/4/2
f 110/3/2 52/3/2 112/3/2
f 111/4/2 110/4/2 112/4/2
f 87/3/2 99/3/2 113/3/2
f 83/3/2 87/3/2 113/3/2
f 103/4/2 105/4/2 114/4/2
f 113/3/2 99/3/2 114/3/2
f 107/4/2 111/4/2 114/4/2
f 99/4/2 101/4/2 114/4/2
f 101/4/2 103/4/2 114/4/2
f 105/4/2 107/4/2 114/4/2
f 111/3/2 112/3/2 115/3/2
f 114/4/2 111/4/2 115/4/2
f 113/4/2 114/4/2 115/4/2
f 112/3/2 52/3/2 116/3/2
f 115/3/2 112/3/2 116/3/2
f 113/4/2 115/4/2 117/4/2
f 115/4/2 116/4/2 117/4/2
f 116/3/2 52/3/2 118/3/2
f 117/4/2 116/4/2 118/4/2
f 83/3/2 113/3/2 119/3/2
f 81/3/2 83/3/2 119/3/2
f 113/4/2 117/4/2 120/4/2
f 119/3/2 113/3/2 120/3/2
f 65/3/2 81/3/2 121/3/2
f 81/3/2 119/3/2 121/3/2
f 119/4/2 120/4/2 122/4/2
f 121/3/2 119/3/2 122/3/2
f 120/4/2 117/4/2 123/4/2
f 122/4/2 120/4/2 123/4/2
f 121/4/2 122/4/2 123/4/2
f 117/3/2 118/3/2 124/3/2
f 123/4/2 117/4/2 124/4/2
f 17/3/2 65/3/2 125/3/2
f 65/3/2 121/3/2 125/3/2
f 121/4/2 123/4/2 126/4/2
f 125/3/2 121/3/2 126/3/2
f 125/4/2 126/4/2 127/4/2
f 126/4/2 123/4/2 127/4/2
f 123/3/2 124/3/2 128/3/2
f 127/4/2 123/4/2 128/4/2
f 125/4/2 127/4/2 129/4/2
f 127/3/2 128/3/2 130/3/2
f 129/4/2 127/4/2 130/4/2
f 125/4/2 129/4/2 131/4/2
f 129/3/2 130/3/2 131/3/2
f 130/3/2 128/3/2 132/3/2
f 131/3/2 130/3/2 132/3/2
f 131/4/2 132/4/2 133/4/2
f 132/3/2 128/3/2 133/3/2
f 128/3/2 124/3/2 134/3/2
f 133/3/2 128/3/2 134/3/2
f 17/3/2 125/3/2 135/3/2
f 131/4/2 133/4/2 136/4/2
f 135/3/2 125/3/2 136/3/2
f 125/4/2 131/4/2 136/4/2
f 133/4/2 134/4/2 136/4/2
f 135/4/2 136/4/2 137/4/2
f 136/4/2 134/4/2 138/4/2
f 137/4/2 136/4/2 138/4/2
f 137/3/2 138/3/2 139/3/2
f 138/4/2 134/4/2 139/4/2
f 139/4/2 134/4/2 140/4/2
f 140/4/2 134/4/2 141/4/2
f 134/3/2 124/3/2 142/3/2
f 141/4/2 134/4/2 142/4/2
f 140/4/2 141/4/2 143/4/2
f 139/3/2 140/3/2 143/3/2
f 143/4/2 141/4/2 144/4/2
f 144/4/2 141/4/2 145/4/2
f 141/3/2 142/3/2 146/3/2
f 145/4/2 141/4/2 146/4/2
f 144/4/2 145/4/2 147/4/2
f 145/3/2 146/3/2 148/3/2
f 147/4/2 145/4/2 148/4/2
f 139/3/2 143/3/2 149/3/2
f 143/3/2 144/3/2 149/3/2
f 144/4/2 147/4/2 150/4/2
f 149/3/2 144/3/2 150/3/2
f 147/3/2 148/3/2 151/3/2
f 150/4/2 147/4/2 151/4/2
f 148/3/2 146/3/2 152/3/2
f 151/3/2 148/3/2 152/3/2
f 150/4/2 151/4/2 153/4/2
f 152/3/2 146/3/2 153/3/2
f 151/4/2 152/4/2 153/4/2
f 149/4/2 150/4/2 153/4/2
f 146/3/2 142/3/2 154/3/2
f 153/3/2 146/3/2 154/3/2
f 137/3/2 139/3/2 155/3/2
f 139/3/2 149/3/2 155/3/2
f 149/4/2 153/4/2 156/4/2
f 155/3/2 149/3/2 156/3/2
f 153/4/2 154/4/2 156/4/2
f 137/3/2 155/3/2 157/3/2
f 155/4/2 156/4/2 158/4/2
f 157/3/2 155/3/2 158/3/2
f 157/4/2 158/4/2 159/4/2
f 158/4/2 156/4/2 160/4/2
f 159/4/2 158/4/2 160/4/2
f 154/3/2 142/3/2 161/3/2
f 160/4/2 156/4/2 161/4/2
f 156/4/2 154/4/2 161/4/2
f 142/3/2 124/3/2 162/3/2
f 161/3/2 142/3/2 162/3/2
f 160/4/2 161/4/2 163/4/2
f 162/3/2 124/3/2 163/3/2
f 161/4/2 162/4/2 163/4/2
f 124/3/2 118/3/2 164/3/2
f 163/3/2 124/3/2 164/3/2
f 163/4/2 164/4/2 165/4/2
f 164/3/2 118/3/2 165/3/2
f 118/3/2 52/3/2 166/3/2
f 165/3/2 118/3/2 166/3/2
f 163/4/2 165/4/2 167/4/2
f 160/4/2 163/4/2 167/4/2
f 165/4/2 166/4/2 167/4/2
f 159/3/2 160/3/2 167/3/2
f 167/4/2 166/4/2 168/4/2
f 166/3/2 52/3/2 169/3/2
f 168/4/2 166/4/2 169/4/2
f 169/3/2 52/3/2 170/3/2
f 167/3/2 168/3/2 171/3/2
f 168/4/2 169/4/2 171/4/2
f 169/4/2 170/4/2 171/4/2
f 171/4/2 170/4/2 172/4/2
f 172/4/2 170/4/2 173/4/2
f 173/4/2 170/4/2 174/4/2
f 172/4/2 173/4/2 175/4/2
f 173/3/2 174/3/2 176/3/2
f 175/4/2 173/4/2 176/4/2
f 172/4/2 175/4/2 177/4/2
f 175/3/2 176/3/2 178/3/2
f 177/4/2 175/4/2 178/4/2
f 172/4/2 177/4/2 179/4/2
f 177/3/2 178/3/2 180/3/2
f 179/4/2 177/4/2 180/4/2
f 159/3/2 167/3/2 181/3/2
f 167/3/2 171/3/2 181/3/2
f 171/3/2 172/3/2 181/3/2
f 172/4/2 179/4/2 182/4/2
f 181/3/2 172/3/2 182/3/2
f 179/3/2 180/3/2 183/3/2
f 182/4/2 179/4/2 183/4/2
f 180/3/2 178/3/2 184/3/2
f 183/3/2 180/3/2 184/3/2
f 176/3/2 174/3/2 184/3/2
f 178/3/2 176/3/2 184/3/2
f 189/1/3 186/1/3 185/1/3
f 190/2/3 187/2/3 186/2/3
f 190/1/3 186/1/3 189/1/3
f 191/1/3 188/1/3 187/1/3
f 191/2/3 187/2/3 190/2/3
f 192/1/3 188/1/3 191/1/3
f 193/1/3 188/1/3 192/1/3
f 194/1/3 188/1/3 193/1/3
f 195/1/3 188/1/3 194/1/3
f 196/3/3 190/3/3 189/3/3
f 197/4/3 191/4/3 190/4/3
f 197/3/3 190/3/3 196/3/3
f 197/4/3 192/4/3 191/4/3
f 198/3/3 193/3/3 192/3/3
f 198/4/3 192/4/3 197/4/3
f 199/4/3 194/4/3 193/4/3
f 199/3/3 193/3/3 198/3/3
f 200/3/3 195/3/3 194/3/3
f 200/4/3 194/4/3 199/4/3
f 201/3/3 195/3/3 200/3/3
f 202/1/4 203/1/4 204/1/4
f 204/1/4 203/1/4 205/1/4
f 205/1/4 203/1/4 206/1/4
f 206/1/4 203/1/4 207/1/4
f 207/1/4 203/1/4 208/1/4
f 208/1/4 203/1/4 209/1/4
f 209/1/4 203/1/4 210/1/4
f 210/1/4 203/1/4 211/1/4
f 204/3/4 205/3/4 212/3/4
f 205/4/4 206/4/4 213/4/4
f 212/3/4 205/3/4 213/3/4
f 206/3/4 207/3/4 214/3/4
f 213/4/4 206/4/4 214/4/4
f 207/4/4 208/4/4 215/4/4
f 214/3/4 207/3/4 215/3/4
f 208/3/4 209/3/4 216/3/4
f 215/4/4 208/4/4 216/4/4
f 209/4/4 210/4/4 217/4/4
f 216/3/4 209/3/4 217/3/4
f 210/3/4 211/3/4 218/3/4
f 217/4/4 210/4/4 218/4/4
f 218/3/4 211/3/4 219/3/4
f 223/1/5 221/1/5 220/1/5
f 224/3/5 222/3/5 221/3/5
f 224/1/5 221/1/5 223/1/5
f 225/2/5 224/2/5 223/2/5
f 225/3/5 222/3/5 224/3/5
f 226/3/5 222/3/5 225/3/5
f 227/2/5 225/2/5 223/2/5
f 228/4/5 226/4/5 225/4/5
f 228/2/5 225/2/5 227/2/5
f 229/1/5 228/1/5 227/1/5
f 230/4/5 226/4/5 228/4/5
f 230/1/5 228/1/5 229/1/5
f 231/4/5 226/4/5 230/4/5
f 232/2/5 230/2/5 229/2/5
f 233/3/5 231/3/5 230/3/5
f 233/2/5 230/2/5 232/2/5
f 234/1/5 233/1/5 232/1/5
f 235/3/5 231/3/5 233/3/5
f 235/1/5 233/1/5 234/1/5
f 236/3/5 231/3/5 235/3/5
f 237/1/6 238/1/6 240/1/6
f 238/3/6 239/3/6 240/3/6
f 240/3/6 239/3/6 241/3/6
f 237/1/6 240/1/6 242/1/6
f 240/4/6 241/4/6 242/4/6
f 242/4/6 241/4/6 243/4/6
f 237/1/6 242/1/6 244/1/6
f 242/3/6 243/3/6 245/3/6
f 244/1/6 242/1/6 245/1/6
f 245/3/6 243/3/6 246/3/6
